<?xml version="1.0" standalone="no"?>
<!DOCTYPE svg PUBLIC "-//W3C//DTD SVG 20010904//EN"
 "http://www.w3.org/TR/2001/REC-SVG-20010904/DTD/svg10.dtd">
<svg version="1.0" xmlns="http://www.w3.org/2000/svg"
 width="887.000000pt" height="887.000000pt" viewBox="0 0 887.000000 887.000000"
 preserveAspectRatio="xMidYMid meet">
<metadata>
Created by potrace 1.11, written by Peter Selinger 2001-2013
</metadata>
<g transform="translate(0.000000,887.000000) scale(0.100000,-0.100000)"
fill="#000000" stroke="none">
<path d="M8068 6388 c-2 -7 -3 -310 -3 -673 1 -363 0 -664 -3 -669 -2 -4 -7
-4 -11 1 -13 20 -136 96 -204 127 -98 45 -126 54 -237 73 -60 11 -272 7 -345
-6 -279 -48 -538 -220 -705 -466 -110 -163 -209 -424 -235 -620 -4 -27 -9 -61
-12 -75 -2 -14 -6 -106 -7 -205 -6 -340 47 -620 162 -852 57 -117 57 -117 140
-223 65 -82 102 -118 177 -170 28 -19 52 -37 55 -40 11 -12 141 -70 192 -85
29 -9 76 -19 103 -23 66 -9 257 -8 320 1 217 34 405 131 595 306 l65 60 18
-62 c10 -34 20 -69 22 -77 22 -90 56 -143 110 -173 38 -21 52 -22 323 -24
l282 -2 0 1945 0 1944 -399 0 c-310 0 -400 -3 -403 -12z m-275 -1743 c95 -24
190 -77 257 -144 13 -13 15 -92 15 -589 l0 -573 -45 -48 c-69 -72 -130 -118
-201 -150 -89 -40 -148 -50 -264 -48 -83 2 -109 7 -155 28 -144 67 -225 227
-257 509 -9 81 -10 321 -1 415 34 363 189 584 428 612 25 3 46 6 48 8 7 6 122
-7 175 -20z"/>
<path d="M3965 6329 c-27 -3 -71 -9 -96 -13 -89 -12 -214 -53 -312 -102 -106
-54 -183 -109 -263 -188 -122 -121 -221 -299 -249 -449 -3 -10 -6 -26 -9 -35
-17 -59 -23 -247 -11 -333 17 -118 27 -164 60 -260 27 -82 88 -213 130 -279
14 -22 25 -43 25 -48 0 -5 -44 -35 -97 -67 -494 -295 -708 -756 -583 -1251 24
-96 94 -244 157 -333 96 -136 268 -283 422 -361 82 -41 216 -88 316 -110 110
-25 375 -35 490 -19 33 4 78 10 100 13 225 27 541 144 758 280 l85 53 123
-126 c130 -133 175 -163 264 -180 26 -5 244 -9 483 -10 l436 -1 -35 36 c-54
58 -118 125 -199 211 -41 43 -151 160 -245 258 -220 232 -212 224 -268 282
l-49 50 47 73 c43 67 165 300 165 315 0 4 6 21 14 38 56 126 119 363 140 532
3 22 8 58 11 81 3 22 7 93 10 157 l4 117 -267 -1 c-147 -1 -280 -6 -296 -10
-65 -19 -98 -73 -110 -179 -14 -119 -18 -148 -27 -188 -5 -23 -12 -59 -15 -80
-3 -20 -8 -40 -11 -44 -2 -5 -6 -16 -8 -27 -5 -27 -70 -219 -90 -266 l-17 -39
-72 75 c-39 41 -135 143 -212 225 -78 82 -161 169 -184 194 -42 45 -289 305
-412 435 -148 156 -236 281 -272 388 -62 183 -28 392 81 500 70 71 152 101
266 99 140 -2 233 -73 316 -239 56 -113 105 -150 186 -144 17 1 134 23 260 48
127 25 241 47 255 50 13 2 27 9 31 15 11 17 -27 171 -66 264 -118 284 -355
482 -675 564 -41 10 -97 22 -125 25 -72 10 -301 12 -360 4z m-225 -2284 c233
-248 403 -428 461 -490 37 -38 88 -92 114 -120 26 -27 72 -76 103 -109 54 -56
55 -59 37 -73 -57 -41 -260 -124 -335 -137 -19 -3 -46 -8 -60 -11 -14 -4 -77
-8 -140 -10 -199 -6 -304 30 -420 145 -128 125 -181 317 -144 523 27 155 76
250 187 364 l60 62 31 -32 c17 -18 65 -69 106 -112z"/>
<path d="M1205 5242 c-36 -2 -114 -13 -205 -28 -134 -22 -376 -130 -495 -221
-90 -69 -206 -191 -265 -279 -69 -102 -149 -271 -176 -374 -19 -74 -34 -139
-39 -173 -3 -23 -9 -69 -14 -102 -12 -81 -6 -392 8 -485 81 -512 386 -898 822
-1043 57 -19 143 -42 191 -50 100 -17 290 -20 396 -7 40 5 94 12 120 15 92 12
272 65 368 110 134 63 252 143 352 242 91 90 88 80 40 138 -9 11 -60 74 -113
140 -109 135 -142 160 -214 164 -63 3 -107 -16 -195 -83 -144 -109 -247 -145
-411 -141 -120 3 -209 32 -301 99 -161 118 -254 392 -247 730 8 413 144 669
393 736 96 26 145 29 261 18 95 -9 152 -30 293 -109 93 -52 120 -63 166 -65
98 -5 122 14 285 236 38 52 72 97 75 100 33 32 32 37 -26 91 -143 136 -386
268 -559 305 -157 33 -354 47 -510 36z"/>
</g>
</svg>
