<?xml version="1.0" standalone="no"?>
<!DOCTYPE svg PUBLIC "-//W3C//DTD SVG 20010904//EN"
 "http://www.w3.org/TR/2001/REC-SVG-20010904/DTD/svg10.dtd">
<svg version="1.0" xmlns="http://www.w3.org/2000/svg"
 width="300.000000pt" height="300.000000pt" viewBox="0 0 300.000000 300.000000"
 preserveAspectRatio="xMidYMid meet">
<metadata>
Created by potrace 1.11, written by Peter Selinger 2001-2013
</metadata>
<g transform="translate(0.000000,300.000000) scale(0.100000,-0.100000)"
fill="#000000" stroke="none">
<path d="M605 1975 c0 -113 -1 -205 -3 -205 -1 0 -26 12 -55 27 -44 23 -64 27
-133 27 -67 0 -90 -4 -135 -27 -102 -49 -166 -134 -198 -260 -35 -133 -16
-321 40 -416 61 -102 129 -144 239 -147 64 -2 84 1 135 25 33 16 73 40 88 55
30 28 47 27 47 -3 0 -10 9 -30 20 -43 18 -23 26 -25 110 -27 80 -2 90 0 91 16
0 10 0 279 1 598 l0 580 -124 3 -124 3 1 -206z m-49 -351 c19 -9 38 -24 42
-33 5 -9 8 -94 7 -189 -1 -169 -1 -172 -24 -190 -71 -52 -131 -65 -184 -41
-28 12 -61 68 -72 117 -22 104 0 256 45 311 40 47 117 58 186 25z"/>
<path d="M1424 2151 c-53 -14 -135 -64 -170 -105 -71 -82 -86 -214 -39 -327
40 -95 40 -92 1 -113 -95 -51 -174 -170 -181 -270 -11 -194 137 -350 347 -363
100 -7 209 17 308 66 l76 38 41 -42 c50 -51 71 -56 232 -54 l121 2 -17 21
c-20 23 -35 39 -144 153 l-77 80 44 89 c45 93 72 197 70 274 l-1 45 -75 0
c-97 1 -118 -8 -125 -54 -12 -69 -28 -136 -41 -170 l-14 -34 -26 29 c-15 16
-68 72 -118 124 -208 219 -217 231 -218 311 0 91 76 152 148 117 15 -7 42 -33
59 -58 17 -25 40 -47 50 -49 11 -2 56 5 102 14 81 17 83 18 77 44 -23 95 -74
160 -159 202 -55 27 -78 32 -152 35 -49 2 -102 0 -119 -5z m142 -862 c35 -37
64 -70 64 -73 0 -4 -21 -17 -47 -28 -65 -29 -165 -33 -212 -8 -95 48 -111 201
-30 292 l24 27 68 -72 c38 -40 98 -102 133 -138z"/>
<path d="M2598 1825 c-2 -2 -25 -5 -52 -8 -103 -13 -216 -88 -271 -182 -51
-86 -71 -248 -46 -358 28 -120 112 -227 214 -272 144 -65 351 -33 462 72 40
38 40 38 -24 108 -39 44 -67 45 -124 5 -58 -41 -120 -48 -178 -20 -24 11 -51
31 -61 43 -51 72 -60 246 -17 334 48 96 144 121 251 65 77 -41 94 -35 150 45
25 38 28 46 16 60 -23 28 -101 73 -153 89 -44 12 -159 26 -167 19z"/>
</g>
</svg>
